# xmcd
#
# Track frame offsets: 
#        150
#        12521
#        23046
#        44041
#        55114
#        70100
#        81687
#        95880
#        108304
#        119056
#        131173
#        144012
#        156661
#        173387
#        188453
#        198733
#        213379
#
# Disc length: 3011 seconds
#
# Revision: 0
# Processed by: cddbd v1.5.2PL0 Copyright (c) Steve Scherf et al.
# Submitted via: ExactAudioCopy v0.99pb5
#
DISCID=fc0bc111
DTITLE=Glen Campbell - Collection Disc 01
DYEAR=2004
DGENRE=Country
TTITLE0=By The Time I Get To Phoenix
TTITLE1=Help Me Make It Through The Night
TTITLE2=Bridge Over Troubled Water
TTITLE3=It's Only Make Believe
TTITLE4=Unconditional Love
TTITLE5=All I Have To Do Is Dream (with Bobbie Gentry)
TTITLE6=Gentle On My Mind (with Bobbie Gentry)
TTITLE7=If Not For You
TTITLE8=Elusive Butterfly
TTITLE9=Galveston
TTITLE10=(I Never Promised You A) Rose Garden
TTITLE11=Mr Tambourine Man (Instrumental)
TTITLE12=For The Good Times (with Tennessee Ernie Ford)
TTITLE13=God Only Knows
TTITLE14=King Of The Road (Instrumental)
TTITLE15=Little Green Apples (with Bobbie Gentry)
TTITLE16=You'll Never Walk Alone
EXTD=
EXTT0=
EXTT1=
EXTT2=
EXTT3=
EXTT4=
EXTT5=
EXTT6=
EXTT7=
EXTT8=
EXTT9=
EXTT10=
EXTT11=
EXTT12=
EXTT13=
EXTT14=
EXTT15=
EXTT16=
PLAYORDER=
